<?xml version="1.0" encoding="utf-8"?><svg viewBox="0 0 640 512" xmlns="http://www.w3.org/2000/svg" xmlns:xlink="http://www.w3.org/1999/xlink"><style>:root>svg{display:none}:root>svg:target{display:block}</style><svg fill="none" viewBox="0 0 6 8" id="Polygon" xmlns="http://www.w3.org/2000/svg"><path d="M0 4l6 3.464V.536L0 4z" fill="#D3B288"/></svg><svg viewBox="0 0 32 32" id="arrow-right2" xmlns="http://www.w3.org/2000/svg"><path d="M19.414 27.414l10-10a2 2 0 000-2.828l-10-10a2 2 0 10-2.828 2.828L23.172 14H4a2 2 0 100 4h19.172l-6.586 6.586c-.39.39-.586.902-.586 1.414s.195 1.024.586 1.414a2 2 0 002.828 0z"/></svg><svg viewBox="0 0 384 512" id="arrow-up-solid" xmlns="http://www.w3.org/2000/svg"><!--! Font Awesome Pro 6.1.2 by @fontawesome - https://fontawesome.com License - https://fontawesome.com/license (Commercial License) Copyright 2022 Fonticons, Inc.--><path d="M374.6 246.6c-6.2 6.3-14.4 9.4-22.6 9.4s-16.38-3.125-22.62-9.375L224 141.3V448c0 17.69-14.33 31.1-31.1 31.1S160 465.7 160 448V141.3L54.63 246.6c-12.5 12.5-32.75 12.5-45.25 0s-12.5-32.75 0-45.25l160-160c12.5-12.5 32.75-12.5 45.25 0l160 160c12.47 12.55 12.47 32.75-.03 45.25z"/></svg><svg viewBox="0 0 640 512" id="business-time-solid" xmlns="http://www.w3.org/2000/svg"><!--! Font Awesome Pro 6.1.2 by @fontawesome - https://fontawesome.com License - https://fontawesome.com/license (Commercial License) Copyright 2022 Fonticons, Inc.--><path d="M496 224c-79.6 0-144 64.4-144 144s64.38 144 144 144 144-64.38 144-144-64.4-144-144-144zm48 160h-54.25c-5.35 0-9.75-4.4-9.75-9.7V304c0-8.8 7.2-16 16-16s16 7.2 16 16v48h32c8.838 0 16 7.162 16 16 0 8.8-7.2 16-16 16zm-223.9-32H208c-8.8 0-16-7.2-16-16v-48H0v144c0 25.6 22.41 48 48 48h312.2c-25.1-30.4-40.2-69.5-40.2-112 0-5.4.5-10.7.1-16zM496 192c5.402 0 10.72.33 16 .807V144c0-25.6-22.4-48-48-48h-80V48c0-25.59-22.4-48-48-48H176c-25.6 0-48 22.41-48 48v48H48c-25.59 0-48 22.4-48 48v112h360.2c32.3-39.1 81.1-64 135.8-64zM336 96H176V48h160v48z"/></svg><svg viewBox="0 0 24 24" id="close-svgrepo-com" xmlns="http://www.w3.org/2000/svg"><path d="M6.226 4.811A1 1 0 004.81 6.225L10.586 12l-5.774 5.775a1 1 0 101.414 1.414L12 13.414l5.775 5.775a1 1 0 001.414-1.414L13.415 12l5.774-5.775a1 1 0 10-1.414-1.414L12 10.586 6.226 4.81z"/></svg><svg viewBox="0 0 512 512" id="envelope-solid" xmlns="http://www.w3.org/2000/svg"><!--! Font Awesome Pro 6.1.2 by @fontawesome - https://fontawesome.com License - https://fontawesome.com/license (Commercial License) Copyright 2022 Fonticons, Inc.--><path d="M464 64c26.5 0 48 21.49 48 48 0 15.1-7.1 29.3-19.2 38.4L275.2 313.6a32.1 32.1 0 01-38.4 0L19.2 150.4C7.113 141.3 0 127.1 0 112c0-26.51 21.49-48 48-48h416zM217.6 339.2a63.9 63.9 0 0076.8 0L512 176v208c0 35.3-28.7 64-64 64H64c-35.35 0-64-28.7-64-64V176l217.6 163.2z"/></svg><svg fill="none" viewBox="0 0 12 16" id="location" xmlns="http://www.w3.org/2000/svg"><path d="M6 15.5a24.815 24.815 0 01-2.917-2.943C1.75 10.965.167 8.593.167 6.333a5.833 5.833 0 019.96-4.126 5.797 5.797 0 011.706 4.126c0 2.26-1.583 4.632-2.917 6.224A24.814 24.814 0 016 15.5zM6 3.833a2.5 2.5 0 100 5 2.5 2.5 0 000-5z" fill="#D3B288"/></svg><svg fill="none" viewBox="0 0 33 40" id="logo" xmlns="http://www.w3.org/2000/svg"><path d="M28.866 26.74c2.744-2.718 4.098-6.486 4.098-11.233 0-4.746-1.39-8.55-4.098-11.232-2.708-2.68-6.664-4.021-11.76-4.021H4.027v12.608H2.245V0H0v40h6.272V19.275c6.308.363 11.796 3.805 15.039 8.877a21.566 21.566 0 01-4.205.399h-5.702v2.246h5.702c1.96 0 3.742-.217 5.345-.616a19.547 19.547 0 011.996 8.66v1.123h6.272V38.84c0-4.095-.926-8.008-2.601-11.45.285-.18.534-.398.748-.652zM17.106 2.535c4.49 0 7.911 1.16 10.192 3.406 2.28 2.246 3.421 5.471 3.421 9.601 0 4.13-1.14 7.356-3.42 9.602-.108.072-.18.181-.286.254-4.277-7.247-11.939-12.138-20.74-12.537V2.536h10.833zM2.246 37.717V15.11h1.781v22.608H2.245zm4.026-20.724v-1.848c8.054.399 15.039 4.928 18.96 11.558-.5.29-1.07.543-1.64.797-3.635-6.015-10.014-10.145-17.32-10.507zm22.202 20.724h-1.817a21.804 21.804 0 00-2.032-8.224c.57-.218 1.105-.508 1.64-.797a23.97 23.97 0 012.21 9.021z" fill="#D3B288"/></svg><svg viewBox="0 0 512 512" id="menu" xmlns="http://www.w3.org/2000/svg"><path d="M32 96h448v96H32zm0 128h448v96H32zm0 128h448v96H32z"/></svg><svg viewBox="0 0 512 512" id="phone-solid" xmlns="http://www.w3.org/2000/svg"><!--! Font Awesome Pro 6.1.2 by @fontawesome - https://fontawesome.com License - https://fontawesome.com/license (Commercial License) Copyright 2022 Fonticons, Inc.--><path d="M511.2 387l-23.25 100.8c-3.266 14.25-15.79 24.22-30.46 24.22C205.2 512 0 306.8 0 54.5c0-14.66 9.969-27.2 24.22-30.45L125.02.8c14.68-3.402 29.68 4.218 35.78 18.12l46.52 108.5c5.438 12.78 1.77 27.67-8.98 36.45L144.5 207.1c33.98 69.22 90.26 125.5 159.5 159.5l44.08-53.8c8.688-10.78 23.69-14.51 36.47-8.975l108.5 46.51C506.1 357.2 514.6 372.4 511.2 387z"/></svg><svg fill="none" viewBox="0 0 21 8" id="right-arrow" xmlns="http://www.w3.org/2000/svg"><path d="M20.354 4.354a.5.5 0 000-.708L17.172.464a.5.5 0 10-.707.708L19.293 4l-2.828 2.828a.5.5 0 10.707.708l3.182-3.182zM0 4.5h20v-1H0v1z" fill="#D3B288"/></svg><svg viewBox="0 0 20 20" id="select-arrows" xmlns="http://www.w3.org/2000/svg"><path d="M10 1L5 8h10l-5-7zm0 18l5-7H5l5 7z"/></svg><svg viewBox="0 0 24 24" id="tick_icon_224500" xmlns="http://www.w3.org/2000/svg"><path clip-rule="evenodd" d="M18.488 6.43a.75.75 0 01.082 1.058l-8.572 10a.75.75 0 01-1.139 0l-3.428-4a.75.75 0 111.138-.976l2.86 3.336 8.002-9.336a.75.75 0 011.057-.081z" fill-rule="evenodd"/></svg></svg>